<svg width="319" height="302" viewBox="0 0 319 302" fill="none" xmlns="http://www.w3.org/2000/svg">
<g clip-path="url(#clip0_1_39)">
<path d="M106.515 137.267C71.0875 137.262 45.8196 115.683 45.8225 83.8497C45.8255 52.2292 71.1023 30.4376 99.3057 30.4432C132.474 30.4432 151.425 52.8835 151.422 84.2887V89.4171L71.3178 89.4059C73.7986 106.284 86.4355 117.187 108.322 117.187C122.536 117.187 138.785 111.846 148.486 104.587V125.526C139.231 132.142 123.212 137.27 106.515 137.27V137.267ZM72.2245 71.4565L125.926 71.4621C122.769 59.0717 113.517 50.0984 99.3028 50.0984C86.2169 50.0984 75.8363 57.7826 72.2245 71.4565Z" fill="white"/>
<path d="M55.6213 213.103C55.6243 181.91 82.0263 159.263 114.745 159.269C128.959 159.269 142.048 162.473 149.044 168.035V191.323C140.016 184.693 129.187 180.207 116.325 180.207C96.2432 180.207 81.1226 193.66 81.1226 212.463C81.1196 231.905 96.2343 245.372 116.544 245.372C129.405 245.372 139.561 241.099 149.038 234.483V256.275C139.558 262.891 126.921 266.095 114.736 266.095C81.5685 266.09 55.6213 243.871 55.6243 213.103H55.6213Z" fill="white"/>
<path d="M216.269 159.283C248.536 159.283 273.128 181.508 273.125 212.275C273.122 243.468 246.944 266.11 215.353 266.11C184.214 266.104 158.495 243.885 158.497 213.117C158.5 181.924 184.678 159.277 216.266 159.283H216.269ZM215.817 180.006C197.991 180 184.226 193.459 184.223 212.689C184.22 231.916 197.982 245.378 215.808 245.383C233.409 245.383 247.399 231.925 247.402 212.695C247.402 193.467 233.415 180.006 215.814 180.006H215.817Z" fill="white"/>
<path d="M216.269 23.2261C248.536 23.2261 273.128 45.451 273.125 76.2187C273.122 107.411 246.944 130.053 215.353 130.053C184.214 130.047 158.495 107.828 158.497 77.0604C158.5 45.8677 184.678 23.2205 216.266 23.2261H216.269ZM215.817 43.9494C197.991 43.9438 184.226 57.4024 184.223 76.6325C184.22 95.8599 197.982 109.321 215.808 109.327C233.409 109.327 247.399 95.8683 247.402 76.6381C247.402 57.4108 233.415 43.9494 215.814 43.9494H215.817Z" fill="white"/>
<path d="M200.832 133.084L193.21 128.221C187.921 124.835 182.478 122.181 176.099 122.181C170.499 122.181 166.61 123.359 160.075 126.01V110.543C166.3 108.334 170.81 107.302 177.345 107.302C190.88 107.302 201.302 114.229 210.014 120.562L218.726 126.899C224.325 131.023 230.391 132.645 235.527 132.645C243.616 132.645 251.085 129.701 260.263 125.137V141.781C257.304 143.402 252.171 145.312 246.726 146.344C246.726 146.344 222.341 152.938 200.835 133.081L200.832 133.084Z" fill="white"/>
</g>
<defs>
<clipPath id="clip0_1_39">
<rect width="318.95" height="302" fill="white"/>
</clipPath>
</defs>
</svg>
