<svg width="223" height="30" viewBox="0 0 223 30" fill="none" xmlns="http://www.w3.org/2000/svg">
<path d="M6.60124 5.89777H17.7242V8.48985H9.60695V13.0043H16.8976V15.5964H9.60695V20.6299H17.8496V23.1717H6.59911L6.60124 5.89777Z" fill="#08293D"/>
<path d="M29.7341 22.572C29.1115 22.572 28.5378 22.3606 27.8111 21.8615L27.6358 21.7485C30.599 21.1436 32.6315 18.8341 32.6315 16.0023C32.6315 14.3405 31.9802 12.8085 30.7955 11.6878C29.613 10.5691 27.9949 9.95273 26.2407 9.95273C22.6103 9.95273 19.7661 12.6097 19.7661 16.0013C19.7661 17.5249 20.4057 18.9429 21.5744 20.0291C21.0644 20.1641 20.6224 20.3535 20.3536 20.5032L20.2654 20.5524V23.0241L20.5183 22.8922C21.5128 22.3732 22.299 22.0519 23.1415 22.0519C23.727 22.0519 24.3251 22.2581 24.8255 22.6317L25.785 23.3516C26.8325 24.104 27.9864 24.8387 29.5471 24.8387C30.2792 24.8387 30.8295 24.7413 31.5807 24.4808L31.6965 24.441V22.0582L31.4575 22.1566C30.6882 22.4726 30.2696 22.5731 29.7352 22.5731L29.7341 22.572ZM29.8329 16.0023C29.8329 18.0544 28.2371 19.6618 26.2004 19.6618C25.191 19.6618 24.2624 19.2757 23.5878 18.5756C22.929 17.8922 22.5667 16.9776 22.5667 16.0013C22.5667 13.9261 24.1286 12.3617 26.1993 12.3617C27.2087 12.3617 28.1362 12.7468 28.8119 13.4458C29.4706 14.1271 29.8329 15.0344 29.8319 16.0023H29.8329Z" fill="#08293D"/>
<path d="M42.489 21.8345C41.6369 22.7972 40.3088 23.4136 38.7055 23.4136C35.7498 23.4136 34.0966 21.4641 34.0966 18.626V11.2977H36.9535V18.3058C36.9525 19.8358 37.8789 20.9461 39.4822 20.9461C40.8347 20.9461 41.8122 20.404 42.438 19.5888V11.2977H45.2949V23.1415H42.4879V21.8335L42.489 21.8345Z" fill="#08293D"/>
<path d="M47.8258 7.01206C47.8258 6.07443 48.6024 5.33458 49.5544 5.33458C50.5064 5.33458 51.283 6.07547 51.283 7.01311C51.283 7.95074 50.5064 8.69059 49.5544 8.69059C48.6024 8.69059 47.8258 7.95074 47.8258 7.01311V7.01206ZM48.1254 11.3298H50.9813L50.9802 23.1747H48.1243L48.1254 11.3298Z" fill="#08293D"/>
<path d="M53.8128 5.53234L56.6687 5.1619L56.6666 23.1747H53.8107L53.8128 5.53234Z" fill="#08293D"/>
<path d="M59.1975 7.01323C59.1975 6.0756 59.9742 5.33575 60.9262 5.33575C61.8781 5.33575 62.6548 6.0756 62.6548 7.01323C62.6548 7.95086 61.8781 8.69071 60.9262 8.69071C59.9742 8.69071 59.1975 7.94982 59.1975 7.01219V7.01323ZM59.4982 11.3309H62.3541L62.3531 23.1759H59.4971L59.4982 11.3309Z" fill="#08293D"/>
<path d="M71.7962 23.4239C70.2929 23.4239 68.9903 22.9792 67.9884 22.0907V23.177H65.1824L65.1845 5.5336L68.0404 5.1642V12.6652C69.0413 11.6041 70.4204 11.0861 72.0236 11.0861C75.2301 11.0861 77.8353 13.6039 77.8353 17.2561C77.8353 20.8088 75.1292 23.425 71.7973 23.4239H71.7962ZM68.0394 14.9842V19.4746C68.6907 20.4614 69.8179 21.1029 71.2703 21.1039C73.4494 21.1039 74.9783 19.5007 74.9783 17.255C74.9783 15.0585 73.3751 13.4543 71.2204 13.4543C69.8179 13.4543 68.7151 14.0466 68.0383 14.9842H68.0394Z" fill="#08293D"/>
<path d="M82.6418 23.178H79.7859L79.7869 11.3331H82.5929V13.357C83.5204 11.827 85.0238 11.0872 86.727 11.0872C87.153 11.0872 87.579 11.1374 88.0295 11.2107V14.0979C87.578 13.9503 87.0776 13.8268 86.4008 13.8258C84.6976 13.8258 83.2187 14.6399 82.6428 15.9972L82.6418 23.178Z" fill="#08293D"/>
<path d="M98.5244 21.6596C97.5724 22.7459 96.1944 23.2628 94.6411 23.2628C91.4091 23.2628 88.7794 20.7701 88.7794 17.1431C88.7794 13.5652 91.4611 10.925 94.7675 10.9261C96.2454 10.9261 97.548 11.3708 98.5255 12.2592V11.173H101.331L101.33 23.0179H98.5244V21.6607V21.6596ZM95.3423 20.9187C96.7203 20.9187 97.7977 20.3264 98.4744 19.3888V14.8733C97.8232 13.9106 96.7214 13.2691 95.2934 13.2691C93.1387 13.2691 91.6354 14.8723 91.6354 17.0929C91.6354 19.3135 93.2131 20.9177 95.3423 20.9177V20.9187Z" fill="#08293D"/>
<path d="M115 14.5663C115 9.60187 118.958 5.99856 123.861 6C125.992 6 127.952 6.51043 129 7.39432V11.1C127.646 10.046 126.024 9.33223 124.097 9.33223C121.087 9.33223 118.823 11.4735 118.822 14.4654C118.822 17.5597 121.086 19.7009 124.13 19.7024C126.057 19.7024 127.579 19.0218 128.999 17.9692V21.437C127.578 22.491 125.685 23 123.859 23C118.889 23 115 19.463 115.001 14.5678L115 14.5663Z" fill="#08293D"/>
<path d="M136.604 11.0922C140.186 11.0922 142.917 13.6592 142.916 17.2119C142.916 20.8149 140.009 23.43 136.502 23.4289C133.045 23.4289 130.189 20.862 130.19 17.3092C130.19 13.7063 133.097 11.0911 136.604 11.0922ZM136.553 13.4855C134.573 13.4855 133.046 15.0395 133.046 17.26C133.046 19.4806 134.573 21.0357 136.553 21.0357C138.507 21.0357 140.06 19.4817 140.06 17.2611C140.06 15.0405 138.507 13.4855 136.553 13.4855Z" fill="#08293D"/>
<path d="M147.75 14.8932V23.1844H144.893V11.3405H147.7V12.6486C148.552 11.6869 149.88 11.0695 151.484 11.0695C154.439 11.0695 156.093 13.019 156.093 15.857V23.1854H153.236V16.1772C153.236 14.6473 152.31 13.537 150.707 13.537C149.354 13.537 148.377 14.0801 147.75 14.8943V14.8932Z" fill="#08293D"/>
<path d="M163.581 23.3097C161.025 23.3097 159.723 22.0268 159.723 19.6576V13.563H157.494V11.3424H159.724V8.65296L162.53 8.28355V11.3434H166.688V13.564H162.529V19.1155C162.529 20.275 163.029 20.9165 164.282 20.9165C165.184 20.9165 166.06 20.6705 166.737 20.3985V22.6682C165.81 23.0879 164.732 23.3097 163.581 23.3097Z" fill="#08293D"/>
<path d="M177.033 21.83C176.081 22.9162 174.703 23.4332 173.149 23.4332C169.917 23.4332 167.288 20.9405 167.288 17.3135C167.288 13.7356 169.969 11.0954 173.276 11.0964C174.754 11.0964 176.056 11.5412 177.034 12.4296V11.3434H179.84L179.839 23.1883H177.033V21.831V21.83ZM173.85 21.0891C175.228 21.0891 176.306 20.4968 176.982 19.5592V15.0437C176.331 14.0809 175.228 13.4395 173.801 13.4395C171.646 13.4395 170.142 15.0426 170.142 17.2632C170.142 19.4838 171.72 21.088 173.849 21.088L173.85 21.0891Z" fill="#08293D"/>
<path d="M188.324 23.721C186.937 23.721 185.735 23.3118 184.811 22.4914V23.4928H182.222L182.224 7.21615L184.859 6.875V13.7953C185.783 12.8168 187.054 12.3386 188.533 12.3386C191.491 12.3386 193.895 14.6607 193.894 18.0303C193.894 21.3089 191.397 23.721 188.324 23.721ZM184.858 15.9353V20.0782C185.458 20.9886 186.498 21.5809 187.838 21.5809C189.849 21.5809 191.259 20.1023 191.259 18.0303C191.259 16.0043 189.78 14.5246 187.792 14.5246C186.498 14.5246 185.48 15.0709 184.857 15.9353H184.858Z" fill="#08293D"/>
<path d="M195.843 5.54707L198.699 5.17767L198.697 23.1904H195.841L195.843 5.54707Z" fill="#08293D"/>
<path d="M207.415 23.4373C203.482 23.4373 200.676 20.9446 200.677 17.2674C200.677 13.6152 203.484 11.0985 206.615 11.0995C210.298 11.0995 212.402 13.6916 212.401 17.3186V17.9109H203.507C203.782 19.8595 205.185 21.1173 207.616 21.1184C209.195 21.1184 210.998 20.502 212.075 19.6627V22.0811C211.048 22.8461 209.269 23.4384 207.415 23.4373ZM203.608 15.8369H209.571C209.22 14.4063 208.193 13.3693 206.615 13.3693C205.162 13.3693 204.01 14.2577 203.608 15.8369Z" fill="#08293D"/>
</svg>
