<svg width="199" height="197" viewBox="0 0 199 197" fill="none" xmlns="http://www.w3.org/2000/svg">
<path d="M21.4846 45.8965L75.994 45.9019V58.6059L36.2142 58.6023V80.7434L71.9384 80.747V93.451L36.2106 93.4473V118.129L76.6002 118.133V130.595L21.4753 130.59L21.4846 45.8965Z" fill="white"/>
<path d="M157.26 151.416C146.578 151.416 138.355 145.727 131.478 140.524L124.603 135.322C120.185 131.933 115.396 130.602 111.346 130.602C104.961 130.602 99.0688 133.021 91.8237 136.771V123.099C94.1583 121.768 98.2101 120.195 102.507 119.349C93.2996 111.485 87.6539 100.351 87.6558 88.2521C87.6576 63.8121 107.672 44.698 132.84 44.7017C158.131 44.7053 177.526 63.823 177.523 88.263C177.521 110.404 160.698 127.463 138.723 130.243L144.737 134.236C148.911 137.018 153.21 139.197 158.242 139.197C162.662 139.197 165.73 138.229 170.888 136.052V148.756C165.975 150.57 162.415 151.416 157.258 151.416H157.26ZM102.511 88.2521C102.511 104.708 115.029 118.864 132.586 118.866C150.018 118.868 162.666 104.713 162.668 88.2576C162.67 71.9236 150.026 57.6471 132.593 57.6453C115.037 57.6435 102.513 71.4352 102.511 88.2521Z" fill="white"/>
</svg>
